<svg xmlns="http://www.w3.org/2000/svg" xmlns:xlink="http://www.w3.org/1999/xlink">
    <defs>

        <symbol id="arrow-down-bold" viewBox="0 0 24 24">
            <path d="M9,4H15V12H19.84L12,19.84L4.16,12H9V4Z"/>
        </symbol>

        <symbol id="arrow-up-bold" viewBox="0 0 24 24">
            <path d="M15,20H9V12H4.16L12,4.16L19.84,12H15V20Z"/>
        </symbol>

        <symbol id="bar-chart" viewBox="0 0 24 24">
            <path d="M3,22V8H7V22H3M10,22V2H14V22H10M17,22V14H21V22H17Z"/>
        </symbol>
        
        <symbol id="chart-line-variant" viewBox="0 0 24 24">
            <path d="M3.5,18.5L9.5,12.5L13.5,16.5L22,6.92L20.59,5.5L13.5,13.5L9.5,9.5L2,17L3.5,18.5Z"/>
        </symbol>

        <symbol id="comment" viewBox="0 0 24 24">
            <path d="M9,22A1,1 0 0,1 8,21V18H4A2,2 0 0,1 2,16V4C2,2.89 2.9,2 4,2H20A2,2 0 0,1 22,4V16A2,2 0 0,1 20,18H13.9L10.2,21.71C10,21.9 9.75,22 9.5,22V22H9Z"/>
        </symbol>

        <symbol id="home" viewBox="0 0 24 24">
            <path d="M10,20V14H14V20H19V12H22L12,3L2,12H5V20H10Z"/>
        </symbol>

        <symbol id="launch" viewBox="0 0 24 24">
            <path d="M19 19H5V5h7V3H5c-1.11 0-2 .9-2 2v14c0 1.1.89 2 2 2h14c1.1 0 2-.9 2-2v-7h-2v7zM14 3v2h3.59l-9.83 9.83 1.41 1.41L19 6.41V10h2V3h-7z"/>
        </symbol>

        <symbol id="link" viewBox="0 0 24 24">
            <path d="M3.9 12c0-1.71 1.39-3.1 3.1-3.1h4V7H7c-2.76 0-5 2.24-5 5s2.24 5 5 5h4v-1.9H7c-1.71 0-3.1-1.39-3.1-3.1zM8 13h8v-2H8v2zm9-6h-4v1.9h4c1.71 0 3.1 1.39 3.1 3.1s-1.39 3.1-3.1 3.1h-4V17h4c2.76 0 5-2.24 5-5s-2.24-5-5-5z"/>
        </symbol>

        <symbol id="message-text" viewBox="0 0 24 24">
            <path d="M20,2H4A2,2 0 0,0 2,4V22L6,18H20A2,2 0 0,0 22,16V4A2,2 0 0,0 20,2M6,9H18V11H6M14,14H6V12H14M18,8H6V6H18"/>
        </symbol>

        <symbol id="reddit" viewBox="0 0 24 24">
            <path d="M14.5 15.41C14.58 15.5 14.58 15.69 14.5 15.8C13.77 16.5 12.41 16.56 12 16.56C11.61 16.56 10.25 16.5 9.54 15.8C9.44 15.69 9.44 15.5 9.54 15.41C9.65 15.31 9.82 15.31 9.92 15.41C10.38 15.87 11.33 16 12 16C12.69 16 13.66 15.87 14.1 15.41C14.21 15.31 14.38 15.31 14.5 15.41M10.75 13.04C10.75 12.47 10.28 12 9.71 12C9.14 12 8.67 12.47 8.67 13.04C8.67 13.61 9.14 14.09 9.71 14.08C10.28 14.08 10.75 13.61 10.75 13.04M14.29 12C13.72 12 13.25 12.5 13.25 13.05S13.72 14.09 14.29 14.09C14.86 14.09 15.33 13.61 15.33 13.05C15.33 12.5 14.86 12 14.29 12M22 12C22 17.5 17.5 22 12 22S2 17.5 2 12C2 6.5 6.5 2 12 2S22 6.5 22 12M18.67 12C18.67 11.19 18 10.54 17.22 10.54C16.82 10.54 16.46 10.7 16.2 10.95C15.2 10.23 13.83 9.77 12.3 9.71L12.97 6.58L15.14 7.05C15.16 7.6 15.62 8.04 16.18 8.04C16.75 8.04 17.22 7.57 17.22 7C17.22 6.43 16.75 5.96 16.18 5.96C15.77 5.96 15.41 6.2 15.25 6.55L12.82 6.03C12.75 6 12.68 6.03 12.63 6.07C12.57 6.11 12.54 6.17 12.53 6.24L11.79 9.72C10.24 9.77 8.84 10.23 7.82 10.96C7.56 10.71 7.2 10.56 6.81 10.56C6 10.56 5.35 11.21 5.35 12C5.35 12.61 5.71 13.11 6.21 13.34C6.19 13.5 6.18 13.62 6.18 13.78C6.18 16 8.79 17.85 12 17.85C15.23 17.85 17.85 16.03 17.85 13.78C17.85 13.64 17.84 13.5 17.81 13.34C18.31 13.11 18.67 12.6 18.67 12Z" />
        </symbol>

    </defs>
</svg>